<?xml version="1.0" encoding="utf-8"?>
<!-- Generator: Adobe Illustrator 27.5.0, SVG Export Plug-In . SVG Version: 6.00 Build 0)  -->
<svg version="1.1" id="Layer_1" xmlns="http://www.w3.org/2000/svg" xmlns:xlink="http://www.w3.org/1999/xlink" x="0px" y="0px"
	 viewBox="160 225 130 144" style="enable-background:new 0 0 432 288;" xml:space="preserve">
<g>
	<rect x="0" y="0" style="fill:none;" width="432" height="288"/>
	<path style="fill:#f4efe9;" d="M153.952,225.059v31.234c0.383-0.119,0.789-0.285,0.979-0.314c0.789,0.521,1.444,0.123,1.754,0.582
		c-0.165,1.12,1.855,0.152,1.747,0.066c0.342,0.32,1.398,0.655,1.757,0.783c0.401-1.105,1.688,0.127,1.744-0.224
		c-0.076,1.029,2.19-2.268,2.012-1.438c0,1.395,0.891,2.326,0.891,2.313c0,1.644,2.236-0.373,2.236-0.462
		c0,0.154,1.507,1.226,1.507,0.792c0,1.249,1.544,0.403,1.544,0.892c0,1.293,1.602,2.289,1.602,1.365
		c0,1.537,1.858,0.491,1.858,0.165c0,0.386,1.781,0.219,1.781-1c0-0.952,1.676-1.021,1.676-0.634c0,0.226,1.863,0.158,1.863,0.158
		c0,0.374,1.809,0.507,1.809-0.359c0-0.109,1.312-0.929,1.312-1.197c0-0.259,1.803-0.965,1.803-0.235
		c0-0.177,1.206,0.498,1.206-1.298c0,1.019,1.441-0.837,1.441-0.92c0-0.633,1.636,0.203,1.636-0.511
		c0,1.197,1.746-1.041,1.746-0.767c0-0.782,1.842,1.098,1.842,0.165c0-0.26,1.573,0.132,1.573,0.813
		c0,0.555,1.647,0.804,1.647,0.222c0-0.289,1.534,0.064,1.534,0.739c0-0.019,1.645,1.588,1.645,0.67
		c0,0.356,1.754,0.821,1.754,0.707c0-0.316,1.645-1.323,1.645-1.294c0-1.088,1.887,1.334,1.887,0.993
		c0,0.381,1.706,0.404,1.706-0.42c0-0.438,1.517-1.621,1.517-1.144c0,0.202,1.811,0.482,1.811,0.135c0,0.028,1.519-0.985,1.519-1
		c0,1.081,1.717-0.277,1.717-0.229c0,0.37,1.715-0.343,1.715-0.205c0-0.522,1.614-0.855,1.614-0.649
		c0-0.221,1.663-1.255,1.663-0.486c0-1.085,1.684-1.748,1.684-0.545c0-0.516,1.804,0.726,1.804,0.801
		c0-0.876,1.734-0.144,1.734-0.202c0,0.545,1.768-0.889,1.768-0.294c0,0.56,1.768,0.234,1.768,0.017
		c0,1.205,1.689,0.397,1.689,0.647c0-0.347,1.753-0.252,1.753,0.129c0-0.049,1.817,0.104,1.817-0.208
		c0-0.208,1.591,0.92,1.591,1.077c0-0.404,1.848-0.406,1.848-0.375c0,0.532,1.785,0.909,1.785-0.077
		c0,0.684,1.665-0.354,1.665,0.632c0,0.184,1.74-0.248,1.74,0.116c0-0.293,1.647,1.606,1.647,1.196c0,0.663,1.762,0.532,1.762,0.503
		c0-0.363,1.783-0.532,1.783-0.853c0-0.293,1.735,0.21,1.735-0.307c0,0.041,1.891,1.479,1.891,0.765
		c0-0.646,1.616-0.939,1.616-1.166c0-0.512,0.596-1.557,0.596-1.575c0,0.744,1.47-0.238,1.47-0.892c0-0.39,1.711-0.397,1.711-0.275
		c0-0.571,1.77-0.49,1.77-0.879c0-0.121,1.853-0.524,1.853-0.283c0-0.28,1.642,1.587,1.642,1.846c0,0.055,1.923-0.601,1.923-0.884
		c0-0.67,1.602-0.272,1.602,1.28c0-0.753,1.995-1.857,1.995-0.899c0,0.034,1.709-0.253,1.709,0.621c0,0.232,1.794,0.11,1.794,0.145
		c0-0.176,1.818-0.278,1.818-0.111c0-0.392,1.591,1.668,1.591,1.731c0,0.465,1.861-0.299,1.861-0.59c0-0.087,1.739,0.11,1.739,0.391
		c0-0.182,1.734-0.716,1.734-0.422c0-0.297,1.711,0.314,1.711-0.431c0-0.054,1.588,0.679,1.812,0.96
		c0.117-0.141,1.713,0.204,1.75-0.244c0.495,0.222,1.671,0.062,1.704-0.445c0.15,0.856,1.676,0.104,1.702-0.573
		c0.263,0.115,1.907-1.099,1.705-0.626c0.654-0.86,2.625,0.426,1.781,1.098c0.112-0.148,1.117-0.369,1.619-0.509v-28.3H153.952z"/>
</g>
</svg>
